<svg xmlns="http://www.w3.org/2000/svg" width="780" height="120"><rect id="backgroundrect" width="100%" height="100%" x="0" y="0" fill="none" stroke="none"/>
    <rect x="10" y="5" fill="none" width="760" height="110" rx="30" stroke="currentColor" stroke-width="10">

    </rect>
    <g class="currentLayer" style="">
        <title>Layer 1</title>
        <path fill="#000000" d="M418.9603599507729,73.08620387045985 a23.841166478986498,22.71532778382048 0 0 1 -9.998838125852261,30.692816789365306 l-7.6576258046652725,3.844127146820855 l-1.8829933959393825,0.9435941397169506 a12.757996224560017,12.155532169999118 0 0 1 -11.27039564341437,0.2873587792197838 l-29.90540756781029,-12.173097721488515 l2.8160774808283566,-7.960093993390277 l17.78515901147575,3.273331993082805 l-9.21055838101224,-16.67533616148987 l-14.82821500948729,-26.844767237842937 l7.22357076805377,-3.620891157504121 l14.828394001254962,26.85261204724597 l3.568021896830386,-1.788104925886902 l-6.53695834725306,-11.843104108556597 l7.219632949164924,-3.6188446854859384 l6.536779355485385,11.843104108556597 l3.56820088859806,-1.788104925886902 l-5.047567848430664,-9.140567269211845 l7.223749759821445,-3.620891157504121 l5.047567848430664,9.140567269211845 l3.5699908062748094,-1.8036240053581194 l-3.4642066715789746,-6.290513905223108 l7.221601858609348,-3.6109998760829063 l3.4642066715789746,6.290343365888258 l9.727844589592543,17.61688382918864 zM349.8906586568679,52.09690469464141 a10.744875813521022,10.237476270957629 0 0 1 7.5822702704741625,-17.473289709246174 a10.75704725372291,10.24907294572733 0 0 1 10.1273542150428,13.6719679354723 l1.895164836141273,3.4130037083237563 A14.013265491263715,13.351524525291904 0 0 0 357.48706927698834,31.51724100112915 a14.003062960506249,13.341803783205535 0 0 0 -1.0086186108477586,26.648817542101966 L354.57308329924183,54.714001327227045 a10.683660628976224,10.179151818439431 0 0 1 -4.682424642373979,-2.6170966325856373 z" id="svg_1" class="selected"/>
        <path fill="#000000" fill-opacity="1" stroke="#000000" stroke-opacity="1" stroke-width="1" stroke-dasharray="none" stroke-linejoin="miter" stroke-linecap="butt" stroke-dashoffset="" fill-rule="nonzero" opacity="1" marker-start="" marker-mid="" marker-end="" id="svg_2" d="M192,34 " style="color: rgb(0, 0, 0);"/>
        <path fill="#000000" fill-opacity="1" stroke="#000000" stroke-opacity="1" stroke-width="1" stroke-dasharray="none" stroke-linejoin="miter" stroke-linecap="butt" stroke-dashoffset="" fill-rule="nonzero" opacity="1" marker-start="" marker-mid="" marker-end="" id="svg_3" d="M10,99 " style="color: rgb(0, 0, 0);"/>
    </g>
</svg>
