<svg xmlns="http://www.w3.org/2000/svg" width="156.61878967285156" height="24.10497283935547" fill="none">
    <rect id="backgroundrect" width="100%" height="100%" x="0" y="0" fill="none" stroke="none"/>
    <defs>
    <clipPath id="clip0_14714_248213">
            <rect x="8" y="6" width="48" height="16" rx="2" fill="white" id="svg_1"/>
    </clipPath>
    </defs>
    <g class="currentLayer" style="">
        <g clip-path="url(#clip0_14714_248213)" id="svg_2" class="">
            <path d="M16.801059809265137,-12.406800381469726 C16.355499809265137,-12.186400381469728 16.17291980926514,-11.646600381469728 16.393249809265136,-11.201100381469725 C16.613579809265136,-10.755500381469727 17.153389809265136,-10.572900381469726 17.598939809265136,-10.793200381469727 L16.801059809265137,-12.406800381469726 zM56.502999809265134,-14.570700381469727 C56.97099980926514,-14.738100381469726 57.21479980926514,-15.253200381469727 57.04749980926513,-15.721200381469727 C56.88009980926514,-16.189200381469725 56.364999809265136,-16.433000381469725 55.89699980926514,-16.265600381469724 L56.502999809265134,-14.570700381469727 zM47.874599809265135,-12.999000381469727 L47.27279980926514,-12.329800381469727 L47.874599809265135,-12.999000381469727 zM48.879999809265136,-12.800900381469727 L48.57699980926514,-13.648300381469726 L48.879999809265136,-12.800900381469727 zM39.866499809265136,-19.002600381469726 L39.266699809265134,-19.673640381469724 L39.866499809265136,-19.002600381469726 zM41.20149980926514,-19.000500381469728 L41.80339980926514,-19.669660381469726 L41.20149980926514,-19.000500381469728 zM24.538699809265136,-15.229000381469726 L24.937599809265137,-14.422300381469727 L24.538699809265136,-15.229000381469726 zM25.322499809265135,-15.272800381469727 L25.628999809265135,-16.11910038146973 L25.322499809265135,-15.272800381469727 zM17.598939809265136,-10.793200381469727 L24.937599809265137,-14.422300381469727 L24.13969980926514,-16.035800381469727 L16.801059809265137,-12.406800381469726 L17.598939809265136,-10.793200381469727 zM25.01599980926514,-14.426600381469726 L31.834299809265136,-11.957200381469725 L32.44729980926513,-13.649600381469726 L25.628999809265135,-16.11910038146973 L25.01599980926514,-14.426600381469726 zM33.747499809265136,-12.326900381469727 L40.466199809265134,-18.331500381469727 L39.266699809265134,-19.673640381469724 L32.547999809265136,-13.669100381469727 L33.747499809265136,-12.326900381469727 zM40.59969980926513,-18.331300381469724 L47.27279980926514,-12.329800381469727 L48.476499809265135,-13.668100381469726 L41.80339980926514,-19.669660381469726 L40.59969980926513,-18.331300381469724 zM49.182999809265134,-11.953400381469727 L56.502999809265134,-14.570700381469727 L55.89699980926514,-16.265600381469724 L48.57699980926514,-13.648300381469726 L49.182999809265134,-11.953400381469727 zM47.27279980926514,-12.329800381469727 C47.791999809265135,-11.862800381469725 48.525499809265135,-11.718300381469728 49.182999809265134,-11.953400381469727 L48.57699980926514,-13.648300381469726 C48.542399809265135,-13.636000381469726 48.50379980926514,-13.643600381469726 48.476499809265135,-13.668100381469726 L47.27279980926514,-12.329800381469727 zM40.466199809265134,-18.331500381469727 C40.50419980926514,-18.365500381469726 40.56179980926514,-18.365400381469726 40.59969980926513,-18.331300381469724 L41.80339980926514,-19.669660381469726 C41.08259980926513,-20.317870381469724 39.98949980926514,-20.319580381469727 39.266699809265134,-19.673640381469724 L40.466199809265134,-18.331500381469727 zM31.834299809265136,-11.957200381469725 C32.491499809265136,-11.719200381469726 33.226299809265136,-11.861200381469725 33.747499809265136,-12.326900381469727 L32.547999809265136,-13.669100381469727 C32.520599809265136,-13.644500381469726 32.48189980926514,-13.637100381469727 32.44729980926513,-13.649600381469726 L31.834299809265136,-11.957200381469725 zM24.937599809265137,-14.422300381469727 C24.962099809265137,-14.434300381469727 24.990399809265135,-14.435900381469727 25.01599980926514,-14.426600381469726 L25.628999809265135,-16.11910038146973 C25.141899809265137,-16.295400381469726 24.603999809265137,-16.265400381469725 24.13969980926514,-16.035800381469727 L24.937599809265137,-14.422300381469727 z" fill="currentColor" id="svg_3"/>
        </g>
        <rect x="2.239067018032074" y="1.4188423156738281" width="152.14065551757812" height="21.267288208007812" rx="1.100000023841858" stroke="currentColor" stroke-width="1.8" stroke-linecap="round" id="svg_4" class=""/>
        <path fill="" fill-opacity="1" stroke="currentColor" stroke-opacity="1" stroke-width="1.8" stroke-dasharray="none" stroke-linejoin="miter" stroke-linecap="round" stroke-dashoffset="" fill-rule="nonzero" opacity="1" marker-start="" marker-mid="" marker-end="" d="M50.552484130859376,-13.29751281738281L38.15248413085938,-13.897512817382813" id="svg_5"/>
        <path fill="" fill-opacity="1" stroke="currentColor" stroke-opacity="1" stroke-width="1.8" stroke-dasharray="none" stroke-linejoin="miter" stroke-linecap="round" stroke-dashoffset="" fill-rule="nonzero" opacity="1" marker-start="" marker-mid="" marker-end="" d="M2.3524841308593754,17.502487182617188L18.652484130859378,9.502487182617188" id="svg_7"/>
        <path fill="" fill-opacity="1" stroke="currentColor" stroke-opacity="1" stroke-width="1.8" stroke-dasharray="none" stroke-linejoin="miter" stroke-linecap="round" stroke-dashoffset="" fill-rule="nonzero" opacity="1" marker-start="" marker-mid="" marker-end="" d="M18.752484130859372,9.402487182617193L41.552484130859376,19.002487182617188" id="svg_9"/>
        <path fill="" fill-opacity="1" stroke="currentColor" stroke-opacity="1" stroke-width="1.8" stroke-dasharray="none" stroke-linejoin="miter" stroke-linecap="round" stroke-dashoffset="" fill-rule="nonzero" opacity="1" marker-start="" marker-mid="" marker-end="" d="M41.65248413085938,19.002487182617188L84.75248413085939,9.602487182617189" id="svg_11"/>
        <path fill="" fill-opacity="1" stroke="currentColor" stroke-opacity="1" stroke-width="1.8" stroke-dasharray="none" stroke-linejoin="miter" stroke-linecap="round" stroke-dashoffset="" fill-rule="nonzero" opacity="1" marker-start="" marker-mid="" marker-end="" d="M84.75248413085939,9.602487182617189L94.75248413085939,13.402487182617193" id="svg_13"/>
    </g>
</svg>
