<svg width="156" height="24" viewBox="0 0 156 24" fill="none" xmlns="http://www.w3.org/2000/svg"><rect width="6" height="6" rx="3" fill="currentColor"></rect><rect x="10" y="1.5" width="36.6667" height="3" rx="1.5" fill="currentColor"></rect><rect y="9" width="6" height="6" rx="3" fill="currentColor"></rect><rect x="10" y="10.5" width="36.6667" height="3" rx="1.5" fill="currentColor"></rect><rect y="18" width="6" height="6" rx="3" fill="currentColor"></rect><rect x="10" y="19.5" width="36.6667" height="3" rx="1.5" fill="currentColor"></rect><rect x="54.6667" width="6" height="6" rx="3" fill="currentColor"></rect><rect x="64.6667" y="1.5" width="36.6667" height="3" rx="1.5" fill="currentColor"></rect><rect x="54.6667" y="9" width="6" height="6" rx="3" fill="currentColor"></rect><rect x="64.6667" y="10.5" width="36.6667" height="3" rx="1.5" fill="currentColor"></rect><rect x="54.6667" y="18" width="6" height="6" rx="3" fill="currentColor"></rect><rect x="64.6667" y="19.5" width="36.6667" height="3" rx="1.5" fill="currentColor"></rect><rect x="109.333" width="6" height="6" rx="3" fill="currentColor"></rect><rect x="119.333" y="1.5" width="36.6667" height="3" rx="1.5" fill="currentColor"></rect><rect x="109.333" y="9" width="6" height="6" rx="3" fill="currentColor"></rect><rect x="119.333" y="10.5" width="36.6667" height="3" rx="1.5" fill="currentColor"></rect><rect x="109.333" y="18" width="6" height="6" rx="3" fill="currentColor"></rect><rect x="119.333" y="19.5" width="36.6667" height="3" rx="1.5" fill="currentColor"></rect></svg>
