<svg width="64" height="18" viewBox="0 0 64 18" fill="none" xmlns="http://www.w3.org/2000/svg"><g clip-path="url(#clip0_16950_270351)"><g clip-path="url(#clip1_16950_270351)"><path d="M10.4316 6.44092C10.7635 6.10898 11.3123 6.09796 11.6573 6.41631C12.0023 6.73466 12.0129 7.26182 11.681 7.59377L10.7492 8.52555L10 9L10.7485 9.47509L10.7521 9.47151L11.6852 10.4046C12.0171 10.7365 12.0065 11.2637 11.6615 11.5821C11.3165 11.9004 10.7678 11.8894 10.4358 11.5574L8.39231 9.51395C8.37915 9.50297 8.36621 9.49161 8.3535 9.47988C8.21689 9.35382 8.14582 9.18683 8.14108 9.01812C8.1342 8.83528 8.20527 8.65064 8.3533 8.51405C8.36679 8.50161 8.38053 8.48958 8.39452 8.47797L10.4316 6.44092Z" fill="currentColor"></path></g><g clip-path="url(#clip2_16950_270351)"><path d="M53.5684 6.44092C53.2365 6.10898 52.6877 6.09796 52.3427 6.41631C51.9977 6.73466 51.9871 7.26182 52.319 7.59377L53.2508 8.52555L54 9L53.2515 9.47509L53.2479 9.47151L52.3148 10.4046C51.9829 10.7365 51.9935 11.2637 52.3385 11.5821C52.6835 11.9004 53.2322 11.8894 53.5642 11.5574L55.6077 9.51395C55.6208 9.50297 55.6338 9.49161 55.6465 9.47988C55.7831 9.35382 55.8542 9.18683 55.8589 9.01812C55.8658 8.83528 55.7947 8.65064 55.6467 8.51405C55.6332 8.50161 55.6195 8.48958 55.6055 8.47797L53.5684 6.44092Z" fill="currentColor"></path></g><rect x="25.5" y="7.5" width="3" height="3" rx="1.5" fill="currentColor"></rect><rect x="30.5" y="7.5" width="3" height="3" rx="1.5" fill="currentColor"></rect><rect x="35.5" y="7.5" width="3" height="3" rx="1.5" fill="currentColor"></rect></g><defs><clipPath id="clip0_16950_270351"><rect width="48" height="6" fill="white" transform="translate(8 6)"></rect></clipPath><clipPath id="clip1_16950_270351"><rect width="4" height="6" fill="white" transform="translate(8 6)"></rect></clipPath><clipPath id="clip2_16950_270351"><rect width="4" height="6" fill="white" transform="matrix(-1 -8.74228e-08 -8.74228e-08 1 56 6)"></rect></clipPath></defs></svg>
