<svg width="156" height="24" xmlns="http://www.w3.org/2000/svg" fill="none">

 <g>
  <title>Layer 1</title>
  <path stroke="currentColor" id="svg_1" stroke-linecap="round" stroke-width="1.7" d="m56.89504,19.74272l0,-5.57476c0,-3.46908 0,-5.2036 -0.70744,-6.5286c-0.62209,-1.16553 -1.61511,-2.11311 -2.83626,-2.70695c-1.38827,-0.67513 -3.20588,-0.67513 -6.84077,-0.67513l-31.15341,0c-3.63489,0 -5.4525,0 -6.84077,0.67513c-1.22118,0.59384 -2.21407,1.54142 -2.83629,2.70695c-0.70741,1.325 -0.70741,3.05955 -0.70741,6.5286l0,5.57476"/>
  <path stroke="currentColor" id="svg_2" stroke-width="1.7" d="m94.58631,6.43704l-27.46991,0c-3.5778,0 -5.36685,0 -6.73332,0.76301c-1.20197,0.67113 -2.17939,1.74205 -2.79171,3.05928c-0.69633,1.49745 -0.69633,3.45763 -0.69633,7.3782l0,1.6955c0,0.19601 0,0.29402 0.03482,0.36892c0.03066,0.0658 0.07953,0.11936 0.13959,0.15296c0.06836,0.03815 0.15779,0.03815 0.33667,0.03815l47.40157,0l0,-2.25553c0,-3.92057 0,-5.88075 -0.69633,-7.3782c-0.61232,-1.31723 -1.58974,-2.38815 -2.79171,-3.05928c-1.36647,-0.76301 -3.15553,-0.76301 -6.73332,-0.76301z"/>
  <path stroke="currentColor" id="svg_3" stroke-width="1.7" d="m140.85364,6.6797l-28.36866,0c-1.60716,0 -2.41089,0 -3.07611,0.17039c-2.3163,0.59334 -4.12523,2.65487 -4.6458,5.29477c-0.14957,0.75809 -0.14957,1.67397 -0.14957,3.50558c0,0.91598 0,1.3738 0.07463,1.75286c0.26044,1.31989 1.16491,2.35068 2.32305,2.64749c0.33261,0.08505 0.73432,0.08505 1.53806,0.08505l41.64084,0c0.17199,0 0.25798,0 0.3237,-0.03815c0.05774,-0.0336 0.10473,-0.08715 0.13421,-0.15296c0.03348,-0.0749 0.03348,-0.17291 0.03348,-0.36891l0,-1.69581c0,-3.92048 0,-5.88069 -0.66952,-7.37811c-0.58875,-1.3172 -1.52854,-2.3881 -2.68423,-3.05924c-1.31386,-0.76296 -3.03404,-0.76296 -6.47409,-0.76296z"/>
 </g>
</svg>